# xmcd
#
# Track frame offsets: 
#        150
#        12008
#        19679
#        31462
#        46209
#        60868
#        62794
#        75075
#        88451
#        111686
#        131833
#        153980
#
# Disc length: 2231 seconds
#
# Revision: 0
# Processed by: cddbd v1.5.2PL0 Copyright (c) Steve Scherf et al.
# Submitted via: ExactAudioCopy v0.95b3
#
DISCID=9208b50c
DTITLE=Mike Nesmith  - Magnetic South
DYEAR=1900
DGENRE=
TTITLE0=Michael Nesmith and The First National Band - Calico Girlfriend
TTITLE1=Michael Nesmith and The First National Band - Nine Time Blue
TTITLE2=Michael Nesmith and The First National Band - Little Red Rider
TTITLE3=Michael Nesmith and The First National Band - The Crippled Lion
TTITLE4=Michael Nesmith and The First National Band - Joanne
TTITLE5=Michael Nesmith and The First National Band - First National Rag
TTITLE6=Michael Nesmith and The First National Band - Mama Nantucket
TTITLE7=Michael Nesmith and The First National Band - Keys to the Car
TTITLE8=Michael Nesmith and The First National Band - Hollywood
TTITLE9=Michael Nesmith and The First National Band - One Rose
TTITLE10=Michael Nesmith and The First National Band - Beyond the Blue H
TTITLE10=orizon
TTITLE11=Michael Nesmith and The First National Band - First National Da
TTITLE11=nce - Instrumental (Bonus Track)
EXTD=
EXTT0=
EXTT1=
EXTT2=
EXTT3=
EXTT4=
EXTT5=
EXTT6=
EXTT7=
EXTT8=
EXTT9=
EXTT10=
EXTT11=
PLAYORDER=
